<svg width="512" height="512" viewBox="0 0 512 512" fill="none" xmlns="http://www.w3.org/2000/svg">
<rect width="512" height="512" fill="url(#paint0_linear_2_10)"/>
<path d="M229.417 375.625C214.796 375.625 202.28 370.419 191.868 360.007C181.456 349.595 176.25 337.079 176.25 322.458C176.25 307.837 181.456 295.321 191.868 284.909C202.28 274.498 214.796 269.292 229.417 269.292C234.512 269.292 239.219 269.901 243.539 271.119C247.859 272.338 252.012 274.165 256 276.602V136.375H335.75V189.542H282.583V322.458C282.583 337.079 277.377 349.595 266.966 360.007C256.554 370.419 244.037 375.625 229.417 375.625Z" fill="#5F6368"/>
<defs>
<linearGradient id="paint0_linear_2_10" x1="256" y1="0" x2="256" y2="512" gradientUnits="userSpaceOnUse">
<stop stop-color="#E8E8E8"/>
<stop offset="1" stop-color="#ECECEC"/>
</linearGradient>
</defs>
</svg>
