<svg width="512" height="512" viewBox="0 0 512 512" fill="none" xmlns="http://www.w3.org/2000/svg">
<rect width="512" height="512" fill="url(#paint0_linear_2_11)"/>
<path d="M256 289.776C257.914 289.776 259.518 289.128 260.813 287.834C262.108 286.539 262.755 284.935 262.755 283.021C262.755 281.107 262.108 279.502 260.813 278.208C259.518 276.913 257.914 276.265 256 276.265C254.086 276.265 252.482 276.913 251.187 278.208C249.892 279.502 249.245 281.107 249.245 283.021C249.245 284.935 249.892 286.539 251.187 287.834C252.482 289.128 254.086 289.776 256 289.776ZM249.245 262.755H262.755V222.224H249.245V262.755ZM256 323.552C246.655 323.552 237.874 321.778 229.655 318.232C221.436 314.685 214.287 309.872 208.207 303.793C202.128 297.713 197.315 290.564 193.768 282.345C190.222 274.126 188.448 265.345 188.448 256C188.448 246.655 190.222 237.874 193.768 229.655C197.315 221.436 202.128 214.287 208.207 208.207C214.287 202.128 221.436 197.315 229.655 193.768C237.874 190.222 246.655 188.448 256 188.448C265.345 188.448 274.126 190.222 282.345 193.768C290.564 197.315 297.713 202.128 303.793 208.207C309.872 214.287 314.685 221.436 318.232 229.655C321.778 237.874 323.552 246.655 323.552 256C323.552 265.345 321.778 274.126 318.232 282.345C314.685 290.564 309.872 297.713 303.793 303.793C297.713 309.872 290.564 314.685 282.345 318.232C274.126 321.778 265.345 323.552 256 323.552ZM256 310.041C271.087 310.041 283.865 304.806 294.336 294.336C304.806 283.865 310.041 271.087 310.041 256C310.041 240.913 304.806 228.135 294.336 217.664C283.865 207.194 271.087 201.959 256 201.959C240.913 201.959 228.135 207.194 217.664 217.664C207.194 228.135 201.959 240.913 201.959 256C201.959 271.087 207.194 283.865 217.664 294.336C228.135 304.806 240.913 310.041 256 310.041Z" fill="#BCBFC2"/>
<defs>
<linearGradient id="paint0_linear_2_11" x1="256" y1="0" x2="256" y2="512" gradientUnits="userSpaceOnUse">
<stop stop-color="#F1F1F1"/>
<stop offset="1" stop-color="#F3F3F3"/>
</linearGradient>
</defs>
</svg>
